<svg id="Layer_1" data-name="Layer 1" xmlns="http://www.w3.org/2000/svg" viewBox="0 0 1466 356"><title>logo-type</title><path d="M112.2,2.23h46.61A5.87,5.87,0,0,1,163.11,4a5.91,5.91,0,0,1,1.81,4.3V154.51a6.18,6.18,0,0,1-6.11,6.11H112.2a6.18,6.18,0,0,1-6.11-6.11v-48.2H60.83v48.2a6.18,6.18,0,0,1-6.11,6.11H8.11a6.09,6.09,0,0,1-4.3-1.7A5.75,5.75,0,0,1,2,154.51V8.34A5.87,5.87,0,0,1,3.81,4a5.87,5.87,0,0,1,4.3-1.81H54.72A5.87,5.87,0,0,1,59,4a5.87,5.87,0,0,1,1.81,4.3V54.72h45.26V8.34A5.87,5.87,0,0,1,107.9,4,5.85,5.85,0,0,1,112.2,2.23Z"/><path d="M233,160.62H190.26a4.79,4.79,0,0,1-3.51-1.47,4.15,4.15,0,0,1-1.47-2.83,6.83,6.83,0,0,1,.23-2L234.84,9.69q2-7.45,10.18-7.46h62.91q8.13,0,10.18,7.46l49.32,144.6a6.83,6.83,0,0,1,.23,2,4.15,4.15,0,0,1-1.47,2.83,4.79,4.79,0,0,1-3.51,1.47H319.92q-7.25,0-10.19-7.69l-5.65-15.84H248.86l-5.65,15.84Q240.26,160.63,233,160.62ZM292.54,93,276.47,45.9,260.41,93Z"/><path d="M581.9,153.61a5.64,5.64,0,0,1,.45,2.48,4.33,4.33,0,0,1-1.47,3.06,4.81,4.81,0,0,1-3.51,1.47H526q-6.78,0-9.5-5.66l-19.91-44.8H455v44.35a6.18,6.18,0,0,1-6.1,6.11H400a6.18,6.18,0,0,1-6.11-6.11V8.34A5.87,5.87,0,0,1,395.67,4,5.85,5.85,0,0,1,400,2.23H510.62q31,0,49.1,14.7T577.82,57q0,30.76-23.76,44.57ZM455,44.31v24h50.92A9.42,9.42,0,0,0,513.56,65a12.53,12.53,0,0,0,2.72-8.26,14.89,14.89,0,0,0-2.61-8.71c-1.73-2.49-4.34-3.74-7.8-3.74Z"/><path d="M714.77,2.23h47.74A4.79,4.79,0,0,1,766,3.7a4.15,4.15,0,0,1,1.47,2.83,9.53,9.53,0,0,1-.23,2.26l-52,144.36q-2.49,7.47-10.18,7.47H652.32q-7.47,0-10-6.79l-52.5-145a9.59,9.59,0,0,1-.22-2.26,4.11,4.11,0,0,1,1.47-2.83,4.78,4.78,0,0,1,3.5-1.47h47.75A9.52,9.52,0,0,1,649,4.6a12.15,12.15,0,0,1,3.51,5.09l26,86.67,26-86.67Q706.62,2.23,714.77,2.23Z"/><path d="M852.62,116.5H942.9a6.18,6.18,0,0,1,6.11,6.11v31.9a6.18,6.18,0,0,1-6.11,6.11h-143a6.18,6.18,0,0,1-6.11-6.11V8.34A5.91,5.91,0,0,1,795.59,4a5.87,5.87,0,0,1,4.3-1.81H940.64A5.87,5.87,0,0,1,944.94,4a5.91,5.91,0,0,1,1.81,4.3v31.9a6.18,6.18,0,0,1-6.11,6.11h-88V60.61h75.57a6.18,6.18,0,0,1,6.11,6.11V96.13a6.18,6.18,0,0,1-6.11,6.11H852.62Z"/><path d="M1115.89,76.61q15.72,11.25,15.72,33.76t-22.85,36.49q-22.86,14-60.64,14T989.4,147.06q-20.94-13.78-20.93-34,0-4.93,5.2-4.94h46.39a10.71,10.71,0,0,1,7.69,2.79q6.33,5.77,22,5.77,21.49,0,21.5-6.33,0-3.94-6.79-6.23t-26.93-4.48q-64-7.43-64-47.42,0-22.51,20.59-36.38T1049.13,2q34.51,0,55.78,14.92t21.27,31.54a4.64,4.64,0,0,1-1.47,3.59,5.67,5.67,0,0,1-4,1.34H1072.1a10.31,10.31,0,0,1-7-2.56q-5.43-4.71-16.29-4.71-15.16,0-15.16,6.12c0,2.19,1.95,3.9,5.88,5.14s11.76,2.51,23.53,3.82Q1100.16,65.35,1115.89,76.61Z"/><path d="M1153.56,2.23h156.13A5.87,5.87,0,0,1,1314,4a5.87,5.87,0,0,1,1.81,4.3V44.77a6.18,6.18,0,0,1-6.11,6.11H1261V154.51a6.18,6.18,0,0,1-6.11,6.11h-46.61a6.18,6.18,0,0,1-6.11-6.11V50.88h-48.65a6.18,6.18,0,0,1-6.11-6.11V8.34a5.87,5.87,0,0,1,1.81-4.3A5.87,5.87,0,0,1,1153.56,2.23Z"/><path d="M330.88,308.83H437a6.18,6.18,0,0,1,6.11,6.11v31.91A6.16,6.16,0,0,1,437,353H278.16a6.18,6.18,0,0,1-6.12-6.1V200.67a6.2,6.2,0,0,1,6.12-6.11H434.74a6.18,6.18,0,0,1,6.11,6.11v31.91a6.18,6.18,0,0,1-6.11,6.11H330.88v14.25h91.41a6.18,6.18,0,0,1,6.11,6.11v29.42a6.18,6.18,0,0,1-6.11,6.11H330.88Z"/><path d="M515.87,353H473.11a4.78,4.78,0,0,1-3.51-1.46,4.17,4.17,0,0,1-1.47-2.83,6.93,6.93,0,0,1,.22-2L517.68,202q2-7.47,10.19-7.47h62.9q8.15,0,10.18,7.47l49.33,144.59a6.86,6.86,0,0,1,.23,2,4.21,4.21,0,0,1-1.47,2.83,4.8,4.8,0,0,1-3.51,1.46H602.76q-7.25,0-10.18-7.69l-5.66-15.84H531.71l-5.66,15.84Q523.11,353,515.87,353Zm59.51-67.65-16.06-47.07L543.25,285.3Z"/><path d="M681.43,194.56H824.89q32.13,0,50.92,15.61t18.78,40.06q0,24.43-15.84,38.8T824.89,303.4h-88.7v43.45a6.16,6.16,0,0,1-6.11,6.1H681.43a6.18,6.18,0,0,1-6.11-6.1V200.67a6.2,6.2,0,0,1,6.11-6.11Zm55,42.09v24.89H824a11.65,11.65,0,0,0,8.48-3.17q3.28-3.17,3.28-8.82a13.58,13.58,0,0,0-3.16-9.28,10.87,10.87,0,0,0-8.6-3.62Z"/><path d="M977.18,308.83h122a6.18,6.18,0,0,1,6.11,6.11v31.91a6.16,6.16,0,0,1-6.11,6.1H924.45a6.16,6.16,0,0,1-6.11-6.1V200.67a6.18,6.18,0,0,1,6.11-6.11h172.43a6.16,6.16,0,0,1,6.1,6.11v31.91a6.16,6.16,0,0,1-6.1,6.11H977.18v14.25h107.25a6.18,6.18,0,0,1,6.11,6.11v29.42a6.18,6.18,0,0,1-6.11,6.11H977.18Z"/><path d="M1316.93,345.94a5.56,5.56,0,0,1,.46,2.49,4.33,4.33,0,0,1-1.47,3.06,4.8,4.8,0,0,1-3.51,1.46H1261q-6.78,0-9.5-5.65l-19.91-44.8H1190v44.35a6.16,6.16,0,0,1-6.11,6.1H1135a6.16,6.16,0,0,1-6.11-6.1V200.67a6.18,6.18,0,0,1,6.11-6.11h110.65q31,0,49.1,14.71t18.1,40q0,30.78-23.76,44.58ZM1190,236.65v24h50.91a9.44,9.44,0,0,0,7.7-3.29,12.51,12.51,0,0,0,2.71-8.26,14.9,14.9,0,0,0-2.6-8.71c-1.73-2.49-4.34-3.73-7.81-3.73Z"/><path d="M247.6,345.94l-27.83-52q23.76-13.8,23.76-44.58,0-25.33-18.1-40t-49.1-14.71H8.11a5.91,5.91,0,0,0-4.3,1.81A5.87,5.87,0,0,0,2,200.67V346.85a5.87,5.87,0,0,0,1.81,4.3,5.9,5.9,0,0,0,4.3,1.8H57a6.16,6.16,0,0,0,6.1-6.1V302.5H162.3l19.91,44.8q2.72,5.65,9.5,5.65h51.37a4.78,4.78,0,0,0,3.5-1.46,4.35,4.35,0,0,0,1.48-3.06A5.7,5.7,0,0,0,247.6,345.94ZM73.24,274a24,24,0,1,1,24-24A24,24,0,0,1,73.24,274Zm88.5,0a24,24,0,1,1,24-24A24,24,0,0,1,161.74,274Z"/><path d="M1363.65,338.08a21.93,21.93,0,0,1-.68,5.67,13,13,0,0,1-2,4.45,9.41,9.41,0,0,1-3.37,2.9,10.17,10.17,0,0,1-4.7,1,8.61,8.61,0,0,1-7.26-3.45l-.33,2.94h-6.39V312.37h7.1v14.11a8.56,8.56,0,0,1,2.9-2.22,9.1,9.1,0,0,1,3.93-.8,10.22,10.22,0,0,1,4.74,1.05,9.57,9.57,0,0,1,3.38,2.91,13.06,13.06,0,0,1,2,4.46,22,22,0,0,1,.68,5.66Zm-7.1-.54a19.08,19.08,0,0,0-.26-3.19,8.27,8.27,0,0,0-.88-2.65,4.9,4.9,0,0,0-1.7-1.8,5,5,0,0,0-2.68-.66,5.51,5.51,0,0,0-3.16.82,5.35,5.35,0,0,0-1.88,2.25v11a5.48,5.48,0,0,0,1.88,2.25,5.7,5.7,0,0,0,3.21.81,5.11,5.11,0,0,0,2.66-.62,4.66,4.66,0,0,0,1.67-1.74,8,8,0,0,0,.88-2.63,20,20,0,0,0,.26-3.31Z"/><path d="M1386.17,352.13a15.4,15.4,0,0,1-5.8-1,13.8,13.8,0,0,1-4.47-2.85A12.48,12.48,0,0,1,1373,344a13.43,13.43,0,0,1-1-5.23v-1a16.29,16.29,0,0,1,1-5.79,13.52,13.52,0,0,1,2.79-4.51,12.62,12.62,0,0,1,4.24-2.94,14.46,14.46,0,0,1,10.67-.06,11,11,0,0,1,4,2.77,12.11,12.11,0,0,1,2.47,4.31,17.42,17.42,0,0,1,.84,5.55v3h-18.76a8,8,0,0,0,.83,2.57,7.09,7.09,0,0,0,1.6,2,7.28,7.28,0,0,0,2.22,1.31,8.08,8.08,0,0,0,2.74.46,10.41,10.41,0,0,0,2.08-.21,10.09,10.09,0,0,0,2-.6,8.63,8.63,0,0,0,1.76-1,6.74,6.74,0,0,0,1.44-1.38l3.55,3.83a10.18,10.18,0,0,1-1.73,1.85,11.44,11.44,0,0,1-2.5,1.61,15.85,15.85,0,0,1-7,1.57Zm-.84-22.92a5.64,5.64,0,0,0-2.2.42,5.31,5.31,0,0,0-1.75,1.22,7.09,7.09,0,0,0-1.26,1.89,10.34,10.34,0,0,0-.77,2.45H1391v-.56a6.72,6.72,0,0,0-.43-2.12,5.11,5.11,0,0,0-1.1-1.73,5.38,5.38,0,0,0-1.75-1.15A6.33,6.33,0,0,0,1385.33,329.21Z"/><path d="M1417.72,317.2V324H1428v5.24h-10.32V341.1a7.85,7.85,0,0,0,.34,2.51,3.81,3.81,0,0,0,1,1.61,3.65,3.65,0,0,0,1.54.86,7.6,7.6,0,0,0,2,.25c.54,0,1.1,0,1.67-.07s1.11-.12,1.63-.19,1-.16,1.46-.25.84-.17,1.16-.25l.69,4.88a8.41,8.41,0,0,1-1.73.75,18.24,18.24,0,0,1-2.12.53c-.75.13-1.53.24-2.34.31s-1.61.12-2.39.12a13.37,13.37,0,0,1-4.13-.6,8.09,8.09,0,0,1-3.17-1.87,8.3,8.3,0,0,1-2-3.22,13.55,13.55,0,0,1-.71-4.68V329.21h-6.32V324h6.32V317.2Z"/><path d="M1453.89,351.62a6.35,6.35,0,0,1-.44-1.17c-.11-.45-.22-.91-.3-1.41a9.68,9.68,0,0,1-3.06,2.19,10.05,10.05,0,0,1-2,.66,11.64,11.64,0,0,1-2.43.24,11.86,11.86,0,0,1-3.9-.61,9.33,9.33,0,0,1-3-1.71,7.73,7.73,0,0,1-2-2.62,7.63,7.63,0,0,1-.72-3.31,7.91,7.91,0,0,1,3.26-6.76q3.26-2.39,9.72-2.39h4V333.1a4,4,0,0,0-1.3-3.16,5.49,5.49,0,0,0-3.76-1.16,4.55,4.55,0,0,0-3.17.93,3.25,3.25,0,0,0-1,2.49h-7.11a7.45,7.45,0,0,1,.78-3.34,8.17,8.17,0,0,1,2.28-2.79,11.35,11.35,0,0,1,3.65-1.9,15.94,15.94,0,0,1,5-.71,16.94,16.94,0,0,1,4.66.62,11.13,11.13,0,0,1,3.74,1.81,8.33,8.33,0,0,1,2.48,3,9.47,9.47,0,0,1,.9,4.23V345a19.63,19.63,0,0,0,.28,3.67,9.37,9.37,0,0,0,.81,2.51v.43Zm-6.77-5a7.42,7.42,0,0,0,2-.26,7.77,7.77,0,0,0,1.66-.66,5.7,5.7,0,0,0,1.28-.93,4.65,4.65,0,0,0,.84-1.06V339h-3.63a11,11,0,0,0-2.83.32,5.36,5.36,0,0,0-1.92.9,3.57,3.57,0,0,0-1.1,1.38,4.22,4.22,0,0,0-.36,1.75,3.11,3.11,0,0,0,1,2.37A4.35,4.35,0,0,0,1447.12,346.64Z"/></svg>