<svg data-name="Layer 1" xmlns="http://www.w3.org/2000/svg" viewBox="0 0 600 502">
  <path d="M113 355.68c-23.5 20.75-79.19 92.19-103.51 77.24s15.18-201.59 56.1-274.74a303.62 303.62 0 0 1 83.53-95.67c46.74-35 99.73-53.39 157.55-58.63C358.9-.85 410.4 2.71 459.59 21.93 534.3 51.13 598 110.54 598 224.63c.3-.3 0 240.37 0 240.17-3.91 22.89-18.14 34.8-43.12 34.77H151.59c-27.71-.23-38.56-12.82-38.61-40.72-.05-33.09.02-67.95.02-103.17zm245.82 37.66v57.82h41.73v-57.64h24.85v57.56h39.41c-1.87-33.26-3.7-74.79-5.54-107.53 26.35-7.27 50.24-17.31 71-33.65 36.07-28.37 49.62-65.19 40-110.07-9.41-44-33.3-79.52-67.72-107-84-67.05-206.18-73.21-303-18.41-41.33 23.38-75.67 53.9-96.21 97.65-30.1 64.12-9.63 119.09 55.54 146.68 20.21 8.56 42 13.31 64.59 20.27V451h44.11v-57.42h24.51V451h41.71v-57.66z"/>
  <path d="M451.42 269.19c-36.08-.24-65-29.31-64.55-65 .42-35.91 29.41-64.06 65.68-63.79 35.32.27 63.83 29.31 63.72 64.92-.11 35.16-29.51 64.1-64.85 63.87zM321.27 175.33h23.28c.18 3.08.5 6.19.51 9.31 0 25.13.25 50.27-.12 75.39-.11 7.32 1.83 12.69 7.09 18 20.56 20.77 40.63 42 61.4 63.65l-14.08 14.76c-6.54-6.24-12.86-11.88-18.75-17.95q-28.12-28.94-55.91-58.21c-2-2.11-4-5.34-4-8.08-.28-30.74-.17-61.5-.13-92.25a34.05 34.05 0 0 1 .71-4.62zM213.3 269.19c-36.09-.24-65-29.31-64.56-65 .42-35.91 29.41-64.06 65.69-63.79 35.32.27 63.82 29.31 63.71 64.92-.14 35.16-29.51 64.1-64.84 63.87z"/>
</svg>
